<?xml version="1.0" encoding="UTF-8" standalone="no"?> <svg xmlns="http://www.w3.org/2000/svg" xmlns:xlink="http://www.w3.org/1999/xlink" xmlns:serif="http://www.serif.com/" width="100%" height="100%" viewBox="0 0 150 41" version="1.1" xml:space="preserve" style="fill-rule:evenodd;clip-rule:evenodd;stroke-linejoin:round;stroke-miterlimit:2;"> <g transform="matrix(0.75,0,0,0.75,0,0)"> <g transform="matrix(0.160151,0,0,0.160151,-105.85,-101.121)"> <path d="M661.454,964.137C660.906,963.71 660.783,963.038 661.15,962.367L664.078,957.731C664.383,957.121 664.993,956.999 665.603,957.426C669.202,960.05 673.167,961.27 677.316,961.27C681.159,961.27 684.026,959.622 684.026,956.146C684.026,952.729 681.586,951.204 675.18,949.435C667.921,947.421 662.248,944.615 662.248,937.111C662.248,929.547 668.47,924.606 677.682,924.606C683.416,924.606 687.93,926.069 691.164,928.327C691.774,928.754 691.774,929.364 691.408,929.913L688.784,934.244C688.419,934.915 687.748,935.037 687.137,934.61C684.453,932.902 681.464,931.926 677.621,931.926C673.717,931.926 670.788,933.391 670.788,936.563C670.788,939.674 673.595,940.649 679.512,942.419C686.771,944.554 692.384,947.36 692.384,955.596C692.384,963.588 686.345,968.59 677.194,968.59C670.544,968.59 665.42,966.942 661.454,964.137Z" style="fill:url(#_Linear1);"></path> <path d="M711.901,949.617L711.901,926.253C711.901,925.582 712.267,925.154 712.999,925.154L719.222,925.154C719.954,925.154 720.32,925.582 720.32,926.253L720.32,950.289C720.32,956.084 723.736,960.965 730.813,960.965C737.828,960.965 741.244,956.084 741.244,950.289L741.244,926.253C741.244,925.582 741.611,925.154 742.343,925.154L748.504,925.154C749.175,925.154 749.602,925.582 749.602,926.253L749.602,949.617C749.602,962.002 742.098,968.59 730.752,968.59C719.405,968.59 711.901,962.002 711.901,949.617Z" style="fill:url(#_Linear2);"></path> <path d="M795.595,940.528C795.595,936.196 792.178,932.598 786.322,932.598L780.038,932.598L780.038,948.215L786.322,948.215C792.301,948.215 795.595,944.737 795.595,940.528ZM804.257,940.649C804.257,949.923 796.998,955.657 786.383,955.718L780.038,955.718L780.038,966.942C780.038,967.614 779.611,968.041 778.94,968.041L772.779,968.041C772.047,968.041 771.62,967.614 771.62,966.942L771.62,926.253C771.62,925.582 772.047,925.154 772.779,925.154L786.749,925.154C797.12,925.154 804.257,931.194 804.257,940.649Z" style="fill:url(#_Linear3);"></path> <path d="M847.261,940.528C847.261,936.196 843.845,932.598 837.989,932.598L831.705,932.598L831.705,948.215L837.989,948.215C843.967,948.215 847.261,944.737 847.261,940.528ZM855.924,940.649C855.924,949.923 848.664,955.657 838.05,955.718L831.705,955.718L831.705,966.942C831.705,967.614 831.278,968.041 830.607,968.041L824.445,968.041C823.713,968.041 823.286,967.614 823.286,966.942L823.286,926.253C823.286,925.582 823.713,925.154 824.445,925.154L838.415,925.154C848.786,925.154 855.924,931.194 855.924,940.649Z" style="fill:url(#_Linear4);"></path> <path d="M908.871,946.689C908.871,938.515 902.953,932.414 895.023,932.414C886.909,932.414 880.931,938.576 880.931,946.689C880.931,954.742 886.909,960.843 895.023,960.843C902.953,960.843 908.871,954.803 908.871,946.689ZM872.329,946.689C872.329,934.244 881.907,924.606 895.023,924.606C908.017,924.606 917.472,934 917.472,946.689C917.472,959.256 908.017,968.59 895.023,968.59C881.907,968.59 872.329,959.073 872.329,946.689Z" style="fill:url(#_Linear5);"></path> <path d="M945.896,948.397L952.057,948.397C957.731,948.397 961.452,945.348 961.452,940.649C961.452,935.525 957.67,932.536 952.118,932.536L945.896,932.536L945.896,948.397ZM969.871,968.041L962.489,968.041C961.94,968.041 961.452,967.797 961.147,967.309L953.277,955.779L945.896,955.779L945.896,966.942C945.896,967.614 945.469,968.041 944.798,968.041L938.637,968.041C937.904,968.041 937.477,967.614 937.477,966.942L937.477,926.253C937.477,925.582 937.904,925.154 938.637,925.154L952.789,925.154C963.221,925.154 970.176,931.072 970.176,940.649C970.176,946.75 967.064,951.387 961.757,953.888L970.664,966.699C971.152,967.492 970.786,968.041 969.871,968.041Z" style="fill:url(#_Linear6);"></path> <path d="M1022.88,926.253L1022.88,931.439C1022.88,932.17 1022.45,932.598 1021.72,932.598L1008.66,932.598L1008.66,966.942C1008.66,967.614 1008.24,968.041 1007.51,968.041L1001.34,968.041C1000.61,968.041 1000.25,967.614 1000.25,966.942L1000.25,932.598L987.069,932.598C986.337,932.598 985.971,932.17 985.971,931.439L985.971,926.253C985.971,925.582 986.337,925.154 987.069,925.154L1021.72,925.154C1022.45,925.154 1022.88,925.582 1022.88,926.253Z" style="fill:url(#_Linear7);"></path> <path d="M1040.87,966.942L1040.87,926.253C1040.87,925.582 1041.3,925.154 1042.03,925.154L1048.19,925.154C1048.86,925.154 1049.29,925.582 1049.29,926.253L1049.29,966.942C1049.29,967.614 1048.86,968.041 1048.19,968.041L1042.03,968.041C1041.3,968.041 1040.87,967.614 1040.87,966.942Z" style="fill:url(#_Linear8);"></path> <path d="M1110.47,926.253L1110.47,967.431C1110.47,968.163 1110.05,968.529 1109.32,968.529L1106.57,968.529C1105.96,968.529 1105.53,968.346 1105.17,967.919L1080.16,939.856L1080.16,966.942C1080.16,967.614 1079.73,968.041 1079,968.041L1073.02,968.041C1072.35,968.041 1071.92,967.614 1071.92,966.942L1071.92,925.826C1071.92,925.154 1072.35,924.728 1073.02,924.728L1075.82,924.728C1076.43,924.728 1076.86,924.972 1077.23,925.338L1102.18,953.339L1102.18,926.253C1102.18,925.582 1102.61,925.154 1103.28,925.154L1109.32,925.154C1110.05,925.154 1110.47,925.582 1110.47,926.253Z" style="fill:url(#_Linear9);"></path> <path d="M1169.71,947.787L1169.71,962.673C1169.71,963.282 1169.52,963.771 1169.03,964.075C1166.96,965.601 1162.02,968.59 1153.36,968.59C1140,968.59 1130.42,959.013 1130.42,946.628C1130.42,934.244 1140,924.606 1153.54,924.606C1160.86,924.606 1165.25,926.802 1167.33,928.144C1167.94,928.51 1168.06,929.059 1167.69,929.669L1165.13,934.366C1164.76,934.977 1164.22,935.099 1163.6,934.793C1161.9,933.878 1158.6,932.476 1153.91,932.476C1145.43,932.476 1139.14,938.088 1139.14,946.628C1139.14,955.169 1145.73,961.025 1153.84,961.025C1157.08,961.025 1159.76,960.355 1161.77,959.378L1161.77,947.787C1161.77,947.056 1162.2,946.689 1162.93,946.689L1168.55,946.689C1169.28,946.689 1169.71,947.056 1169.71,947.787Z" style="fill:url(#_Linear10);"></path> <path d="M1269.44,926.436L1256.87,967.064C1256.69,967.736 1256.2,968.041 1255.59,968.041L1251.2,968.041C1250.59,968.041 1250.16,967.736 1249.98,967.126L1240.53,937.966L1231.31,967.126C1231.13,967.736 1230.7,968.041 1230.09,968.041L1225.64,968.041C1225.03,968.041 1224.54,967.736 1224.42,967.064L1211.85,926.436C1211.67,925.643 1212.04,925.154 1212.83,925.154L1219.36,925.154C1220.03,925.154 1220.45,925.521 1220.64,926.131L1224.48,940.772L1228.14,956.146L1232.59,941.077L1237.47,926.069C1237.66,925.398 1238.15,925.154 1238.76,925.154L1242.42,925.154C1243.03,925.154 1243.51,925.398 1243.7,926.069L1248.64,941.077L1253.34,955.962L1257.42,940.528L1261.21,926.131C1261.39,925.521 1261.75,925.154 1262.43,925.154L1268.47,925.154C1269.26,925.154 1269.69,925.643 1269.44,926.436Z" style="fill:url(#_Linear11);"></path> <path d="M1321.23,946.689C1321.23,938.515 1315.31,932.414 1307.38,932.414C1299.27,932.414 1293.29,938.576 1293.29,946.689C1293.29,954.742 1299.27,960.843 1307.38,960.843C1315.31,960.843 1321.23,954.803 1321.23,946.689ZM1284.69,946.689C1284.69,934.244 1294.26,924.606 1307.38,924.606C1320.37,924.606 1329.83,934 1329.83,946.689C1329.83,959.256 1320.37,968.59 1307.38,968.59C1294.26,968.59 1284.69,959.073 1284.69,946.689Z" style="fill:url(#_Linear12);"></path> <path d="M1395.22,966.942C1395.22,967.736 1394.8,968.041 1394.06,968.041L1388.15,968.041C1387.35,968.041 1386.99,967.614 1386.99,966.942L1386.62,942.297L1375.21,962.245C1374.97,962.795 1374.48,963.038 1373.87,963.038L1370.39,963.038C1369.78,963.038 1369.36,962.795 1369.05,962.245L1357.95,942.297L1357.58,966.942C1357.58,967.614 1357.16,968.041 1356.42,968.041L1350.44,968.041C1349.65,968.041 1349.35,967.675 1349.35,966.942L1350.57,926.253C1350.57,925.582 1350.93,925.154 1351.79,925.154L1355.02,925.154C1355.63,925.154 1356.06,925.398 1356.36,925.947L1372.16,953.339L1388.27,925.947C1388.57,925.398 1389,925.154 1389.61,925.154L1392.78,925.154C1393.58,925.154 1394.06,925.582 1394.06,926.314L1395.22,966.942Z" style="fill:url(#_Linear13);"></path> <path d="M1446.89,961.758L1446.89,966.942C1446.89,967.614 1446.46,968.041 1445.79,968.041L1418.46,968.041C1417.73,968.041 1417.3,967.614 1417.3,966.942L1417.3,926.253C1417.3,925.582 1417.73,925.154 1418.46,925.154L1445.55,925.154C1446.28,925.154 1446.7,925.582 1446.7,926.253L1446.7,931.439C1446.7,932.17 1446.28,932.598 1445.55,932.598L1425.72,932.598L1425.72,942.663L1443.04,942.663C1443.78,942.663 1444.2,943.09 1444.2,943.822L1444.2,949.008C1444.2,949.679 1443.78,950.106 1443.04,950.106L1425.72,950.106L1425.72,960.659L1445.79,960.659C1446.46,960.659 1446.89,961.025 1446.89,961.758Z" style="fill:url(#_Linear14);"></path> <path d="M1506.06,926.253L1506.06,967.431C1506.06,968.163 1505.63,968.529 1504.9,968.529L1502.15,968.529C1501.54,968.529 1501.12,968.346 1500.75,967.919L1475.74,939.856L1475.74,966.942C1475.74,967.614 1475.31,968.041 1474.58,968.041L1468.6,968.041C1467.93,968.041 1467.5,967.614 1467.5,966.942L1467.5,925.826C1467.5,925.154 1467.93,924.728 1468.6,924.728L1471.41,924.728C1472.02,924.728 1472.44,924.972 1472.81,925.338L1497.76,953.339L1497.76,926.253C1497.76,925.582 1498.19,925.154 1498.86,925.154L1504.9,925.154C1505.63,925.154 1506.06,925.582 1506.06,926.253Z" style="fill:url(#_Linear15);"></path> <path d="M1584.14,961.758L1584.14,966.942C1584.14,967.614 1583.71,968.041 1582.98,968.041L1556.13,968.041C1555.4,968.041 1554.98,967.614 1554.98,966.942L1554.98,926.253C1554.98,925.582 1555.4,925.154 1556.13,925.154L1562.3,925.154C1562.97,925.154 1563.39,925.582 1563.39,926.253L1563.39,960.659L1582.98,960.659C1583.71,960.659 1584.14,961.025 1584.14,961.758Z" style="fill:url(#_Linear16);"></path> <path d="M1631.66,961.758L1631.66,966.942C1631.66,967.614 1631.23,968.041 1630.56,968.041L1603.23,968.041C1602.49,968.041 1602.07,967.614 1602.07,966.942L1602.07,926.253C1602.07,925.582 1602.49,925.154 1603.23,925.154L1630.31,925.154C1631.04,925.154 1631.47,925.582 1631.47,926.253L1631.47,931.439C1631.47,932.17 1631.04,932.598 1630.31,932.598L1610.49,932.598L1610.49,942.663L1627.81,942.663C1628.54,942.663 1628.97,943.09 1628.97,943.822L1628.97,949.008C1628.97,949.679 1628.54,950.106 1627.81,950.106L1610.49,950.106L1610.49,960.659L1630.56,960.659C1631.23,960.659 1631.66,961.025 1631.66,961.758Z" style="fill:url(#_Linear17);"></path> <path d="M1661.85,952.606L1674.84,952.606L1668.37,937.111L1661.85,952.606ZM1688.38,968.041L1681.86,968.041C1681.25,968.041 1680.82,967.736 1680.58,967.126L1677.53,959.744L1659.16,959.744L1656.11,967.126C1655.87,967.736 1655.44,968.041 1654.83,968.041L1648.3,968.041C1647.45,968.041 1647.08,967.553 1647.39,966.76L1665.26,926.009C1665.45,925.46 1666,925.154 1666.61,925.154L1670.27,925.154C1670.88,925.154 1671.36,925.46 1671.61,926.009L1689.3,966.76C1689.6,967.553 1689.24,968.041 1688.38,968.041Z" style="fill:url(#_Linear18);"></path> <path d="M1737.67,946.689C1737.67,938.21 1732.3,932.598 1723.34,932.598L1715.59,932.598L1715.59,960.599L1723.34,960.599C1732.3,960.599 1737.67,955.047 1737.67,946.689ZM1746.21,946.567C1746.21,959.439 1737.24,968.041 1723.7,968.041L1708.33,968.041C1707.6,968.041 1707.17,967.614 1707.17,966.942L1707.17,926.253C1707.17,925.582 1707.6,925.154 1708.33,925.154L1723.7,925.154C1737.24,925.154 1746.21,933.695 1746.21,946.567Z" style="fill:url(#_Linear19);"></path> <path d="M1795.93,961.758L1795.93,966.942C1795.93,967.614 1795.5,968.041 1794.83,968.041L1767.5,968.041C1766.77,968.041 1766.34,967.614 1766.34,966.942L1766.34,926.253C1766.34,925.582 1766.77,925.154 1767.5,925.154L1794.58,925.154C1795.32,925.154 1795.74,925.582 1795.74,926.253L1795.74,931.439C1795.74,932.17 1795.32,932.598 1794.58,932.598L1774.76,932.598L1774.76,942.663L1792.08,942.663C1792.81,942.663 1793.24,943.09 1793.24,943.822L1793.24,949.008C1793.24,949.679 1792.81,950.106 1792.08,950.106L1774.76,950.106L1774.76,960.659L1794.83,960.659C1795.5,960.659 1795.93,961.025 1795.93,961.758Z" style="fill:url(#_Linear20);"></path> <path d="M1824.9,948.397L1831.06,948.397C1836.73,948.397 1840.45,945.348 1840.45,940.649C1840.45,935.525 1836.67,932.536 1831.12,932.536L1824.9,932.536L1824.9,948.397ZM1848.87,968.041L1841.49,968.041C1840.94,968.041 1840.45,967.797 1840.15,967.309L1832.28,955.779L1824.9,955.779L1824.9,966.942C1824.9,967.614 1824.47,968.041 1823.8,968.041L1817.64,968.041C1816.91,968.041 1816.48,967.614 1816.48,966.942L1816.48,926.253C1816.48,925.582 1816.91,925.154 1817.64,925.154L1831.79,925.154C1842.22,925.154 1849.18,931.072 1849.18,940.649C1849.18,946.75 1846.07,951.387 1840.76,953.888L1849.67,966.699C1850.16,967.492 1849.79,968.041 1848.87,968.041Z" style="fill:url(#_Linear21);"></path> <path d="M1866.8,964.137C1866.26,963.71 1866.13,963.038 1866.5,962.367L1869.43,957.731C1869.73,957.121 1870.34,956.999 1870.95,957.426C1874.55,960.05 1878.52,961.27 1882.67,961.27C1886.51,961.27 1889.38,959.622 1889.38,956.146C1889.38,952.729 1886.94,951.204 1880.53,949.435C1873.27,947.421 1867.6,944.615 1867.6,937.111C1867.6,929.547 1873.82,924.606 1883.03,924.606C1888.77,924.606 1893.28,926.069 1896.51,928.327C1897.12,928.754 1897.12,929.364 1896.76,929.913L1894.13,934.244C1893.77,934.915 1893.1,935.037 1892.49,934.61C1889.8,932.902 1886.81,931.926 1882.97,931.926C1879.07,931.926 1876.14,933.391 1876.14,936.563C1876.14,939.674 1878.95,940.649 1884.86,942.419C1892.12,944.554 1897.73,947.36 1897.73,955.596C1897.73,963.588 1891.69,968.59 1882.54,968.59C1875.89,968.59 1870.77,966.942 1866.8,964.137Z" style="fill:url(#_Linear22);"></path> </g> <g transform="matrix(0.160151,0,0,0.160151,-105.85,-101.121)"> <path d="M1595.46,830.142L1481.01,830.142L1481.01,636.074C1481.01,633.275 1479.14,631.409 1476.35,631.409L1463.59,631.409C1460.8,631.409 1458.93,633.275 1458.93,636.074L1458.93,845.381C1458.93,848.18 1460.8,850.046 1463.59,850.046L1595.46,850.046C1598.26,850.046 1600.13,848.18 1600.13,845.381L1600.13,834.807C1600.13,832.008 1598.26,830.142 1595.46,830.142ZM1899.06,779.545L1846.32,779.545L1785.48,635.142C1784.54,632.653 1782.37,631.409 1779.88,631.409L1768.99,631.409C1766.5,631.409 1764.33,632.653 1763.39,635.142L1674.76,844.759C1673.51,847.869 1675.07,850.046 1678.49,850.046L1692.17,850.046C1694.66,850.046 1696.84,848.802 1697.77,846.314L1702.05,835.995L1725,780.691L1724.83,780.691L1774.28,661.888L1823.25,779.545L1749.26,779.545L1749.26,799.545L1831.39,799.545L1850.79,846.314C1851.72,848.802 1853.9,850.046 1856.39,850.046L1870.07,850.046C1873.49,850.046 1875.05,847.869 1873.8,844.759L1854.75,799.545L1899.06,799.545L1899.06,779.545ZM1060.55,631.409L928.68,631.409C925.881,631.409 924.015,633.275 924.015,636.074L924.015,845.381C924.015,848.18 925.881,850.046 928.68,850.046L1060.55,850.046C1063.35,850.046 1065.21,848.18 1065.21,845.381L1065.21,834.807C1065.21,832.008 1063.35,830.142 1060.55,830.142L946.096,830.142L946.096,748.97L1045.62,748.97C1048.42,748.97 1050.28,747.104 1050.28,744.305L1050.28,733.731C1050.28,730.931 1048.42,729.065 1045.62,729.065L946.096,729.065L946.096,651.314L1060.55,651.314C1063.35,651.314 1065.21,649.448 1065.21,646.648L1065.21,636.074C1065.21,633.275 1063.35,631.409 1060.55,631.409ZM708.183,738.706L812.992,637.008C816.102,633.897 814.547,631.409 810.504,631.409L792.466,631.409C790.288,631.409 788.423,632.031 786.556,633.897L687.035,731.242L687.035,636.074C687.035,633.275 685.169,631.409 682.37,631.409L669.619,631.409C666.82,631.409 664.954,633.275 664.954,636.074L664.954,845.381C664.954,848.18 666.82,850.046 669.619,850.046L682.37,850.046C685.169,850.046 687.035,848.18 687.035,845.381L687.035,748.97L794.643,847.869C796.198,849.424 798.375,850.046 800.552,850.046L820.456,850.046C824.499,850.046 825.743,847.558 822.633,844.448L708.183,738.706ZM1334.22,830.142L1219.77,830.142L1219.77,636.074C1219.77,633.275 1217.91,631.409 1215.11,631.409L1202.36,631.409C1199.56,631.409 1197.69,633.275 1197.69,636.074L1197.69,845.381C1197.69,848.18 1199.56,850.046 1202.36,850.046L1334.22,850.046C1337.02,850.046 1338.89,848.18 1338.89,845.381L1338.89,834.807C1338.89,832.008 1337.02,830.142 1334.22,830.142Z" style="fill:url(#_Linear23);"></path> </g> </g> <defs> <linearGradient id="_Linear1" x1="0" y1="0" x2="1" y2="0" gradientUnits="userSpaceOnUse" gradientTransform="matrix(1236.79,0,0,43.984,660.94,946.598)"><stop offset="0" style="stop-color:rgb(236,208,116);stop-opacity:1"></stop><stop offset="0.3" style="stop-color:rgb(244,241,194);stop-opacity:1"></stop><stop offset="0.4" style="stop-color:rgb(220,209,161);stop-opacity:1"></stop><stop offset="0.5" style="stop-color:rgb(185,164,112);stop-opacity:1"></stop><stop offset="0.6" style="stop-color:rgb(178,153,99);stop-opacity:1"></stop><stop offset="1" style="stop-color:rgb(239,223,156);stop-opacity:1"></stop></linearGradient> <linearGradient id="_Linear2" x1="0" y1="0" x2="1" y2="0" gradientUnits="userSpaceOnUse" gradientTransform="matrix(1236.79,0,0,43.984,660.94,946.598)"><stop offset="0" style="stop-color:rgb(236,208,116);stop-opacity:1"></stop><stop offset="0.3" style="stop-color:rgb(244,241,194);stop-opacity:1"></stop><stop offset="0.4" style="stop-color:rgb(220,209,161);stop-opacity:1"></stop><stop offset="0.5" style="stop-color:rgb(185,164,112);stop-opacity:1"></stop><stop offset="0.6" style="stop-color:rgb(178,153,99);stop-opacity:1"></stop><stop offset="1" style="stop-color:rgb(239,223,156);stop-opacity:1"></stop></linearGradient> <linearGradient id="_Linear3" x1="0" y1="0" x2="1" y2="0" gradientUnits="userSpaceOnUse" gradientTransform="matrix(1236.79,0,0,43.984,660.94,946.598)"><stop offset="0" style="stop-color:rgb(236,208,116);stop-opacity:1"></stop><stop offset="0.3" style="stop-color:rgb(244,241,194);stop-opacity:1"></stop><stop offset="0.4" style="stop-color:rgb(220,209,161);stop-opacity:1"></stop><stop offset="0.5" style="stop-color:rgb(185,164,112);stop-opacity:1"></stop><stop offset="0.6" style="stop-color:rgb(178,153,99);stop-opacity:1"></stop><stop offset="1" style="stop-color:rgb(239,223,156);stop-opacity:1"></stop></linearGradient> <linearGradient id="_Linear4" x1="0" y1="0" x2="1" y2="0" gradientUnits="userSpaceOnUse" gradientTransform="matrix(1236.79,0,0,43.984,660.94,946.598)"><stop offset="0" style="stop-color:rgb(236,208,116);stop-opacity:1"></stop><stop offset="0.3" style="stop-color:rgb(244,241,194);stop-opacity:1"></stop><stop offset="0.4" style="stop-color:rgb(220,209,161);stop-opacity:1"></stop><stop offset="0.5" style="stop-color:rgb(185,164,112);stop-opacity:1"></stop><stop offset="0.6" style="stop-color:rgb(178,153,99);stop-opacity:1"></stop><stop offset="1" style="stop-color:rgb(239,223,156);stop-opacity:1"></stop></linearGradient> <linearGradient id="_Linear5" x1="0" y1="0" x2="1" y2="0" gradientUnits="userSpaceOnUse" gradientTransform="matrix(1236.79,0,0,43.984,660.94,946.598)"><stop offset="0" style="stop-color:rgb(236,208,116);stop-opacity:1"></stop><stop offset="0.3" style="stop-color:rgb(244,241,194);stop-opacity:1"></stop><stop offset="0.4" style="stop-color:rgb(220,209,161);stop-opacity:1"></stop><stop offset="0.5" style="stop-color:rgb(185,164,112);stop-opacity:1"></stop><stop offset="0.6" style="stop-color:rgb(178,153,99);stop-opacity:1"></stop><stop offset="1" style="stop-color:rgb(239,223,156);stop-opacity:1"></stop></linearGradient> <linearGradient id="_Linear6" x1="0" y1="0" x2="1" y2="0" gradientUnits="userSpaceOnUse" gradientTransform="matrix(1236.79,0,0,43.984,660.94,946.598)"><stop offset="0" style="stop-color:rgb(236,208,116);stop-opacity:1"></stop><stop offset="0.3" style="stop-color:rgb(244,241,194);stop-opacity:1"></stop><stop offset="0.4" style="stop-color:rgb(220,209,161);stop-opacity:1"></stop><stop offset="0.5" style="stop-color:rgb(185,164,112);stop-opacity:1"></stop><stop offset="0.6" style="stop-color:rgb(178,153,99);stop-opacity:1"></stop><stop offset="1" style="stop-color:rgb(239,223,156);stop-opacity:1"></stop></linearGradient> <linearGradient id="_Linear7" x1="0" y1="0" x2="1" y2="0" gradientUnits="userSpaceOnUse" gradientTransform="matrix(1236.79,0,0,43.984,660.94,946.598)"><stop offset="0" style="stop-color:rgb(236,208,116);stop-opacity:1"></stop><stop offset="0.3" style="stop-color:rgb(244,241,194);stop-opacity:1"></stop><stop offset="0.4" style="stop-color:rgb(220,209,161);stop-opacity:1"></stop><stop offset="0.5" style="stop-color:rgb(185,164,112);stop-opacity:1"></stop><stop offset="0.6" style="stop-color:rgb(178,153,99);stop-opacity:1"></stop><stop offset="1" style="stop-color:rgb(239,223,156);stop-opacity:1"></stop></linearGradient> <linearGradient id="_Linear8" x1="0" y1="0" x2="1" y2="0" gradientUnits="userSpaceOnUse" gradientTransform="matrix(1236.79,0,0,43.984,660.94,946.598)"><stop offset="0" style="stop-color:rgb(236,208,116);stop-opacity:1"></stop><stop offset="0.3" style="stop-color:rgb(244,241,194);stop-opacity:1"></stop><stop offset="0.4" style="stop-color:rgb(220,209,161);stop-opacity:1"></stop><stop offset="0.5" style="stop-color:rgb(185,164,112);stop-opacity:1"></stop><stop offset="0.6" style="stop-color:rgb(178,153,99);stop-opacity:1"></stop><stop offset="1" style="stop-color:rgb(239,223,156);stop-opacity:1"></stop></linearGradient> <linearGradient id="_Linear9" x1="0" y1="0" x2="1" y2="0" gradientUnits="userSpaceOnUse" gradientTransform="matrix(1236.79,0,0,43.984,660.94,946.598)"><stop offset="0" style="stop-color:rgb(236,208,116);stop-opacity:1"></stop><stop offset="0.3" style="stop-color:rgb(244,241,194);stop-opacity:1"></stop><stop offset="0.4" style="stop-color:rgb(220,209,161);stop-opacity:1"></stop><stop offset="0.5" style="stop-color:rgb(185,164,112);stop-opacity:1"></stop><stop offset="0.6" style="stop-color:rgb(178,153,99);stop-opacity:1"></stop><stop offset="1" style="stop-color:rgb(239,223,156);stop-opacity:1"></stop></linearGradient> <linearGradient id="_Linear10" x1="0" y1="0" x2="1" y2="0" gradientUnits="userSpaceOnUse" gradientTransform="matrix(1236.79,0,0,43.984,660.94,946.598)"><stop offset="0" style="stop-color:rgb(236,208,116);stop-opacity:1"></stop><stop offset="0.3" style="stop-color:rgb(244,241,194);stop-opacity:1"></stop><stop offset="0.4" style="stop-color:rgb(220,209,161);stop-opacity:1"></stop><stop offset="0.5" style="stop-color:rgb(185,164,112);stop-opacity:1"></stop><stop offset="0.6" style="stop-color:rgb(178,153,99);stop-opacity:1"></stop><stop offset="1" style="stop-color:rgb(239,223,156);stop-opacity:1"></stop></linearGradient> <linearGradient id="_Linear11" x1="0" y1="0" x2="1" y2="0" gradientUnits="userSpaceOnUse" gradientTransform="matrix(1236.79,0,0,43.984,660.94,946.598)"><stop offset="0" style="stop-color:rgb(236,208,116);stop-opacity:1"></stop><stop offset="0.3" style="stop-color:rgb(244,241,194);stop-opacity:1"></stop><stop offset="0.4" style="stop-color:rgb(220,209,161);stop-opacity:1"></stop><stop offset="0.5" style="stop-color:rgb(185,164,112);stop-opacity:1"></stop><stop offset="0.6" style="stop-color:rgb(178,153,99);stop-opacity:1"></stop><stop offset="1" style="stop-color:rgb(239,223,156);stop-opacity:1"></stop></linearGradient> <linearGradient id="_Linear12" x1="0" y1="0" x2="1" y2="0" gradientUnits="userSpaceOnUse" gradientTransform="matrix(1236.79,0,0,43.984,660.94,946.598)"><stop offset="0" style="stop-color:rgb(236,208,116);stop-opacity:1"></stop><stop offset="0.3" style="stop-color:rgb(244,241,194);stop-opacity:1"></stop><stop offset="0.4" style="stop-color:rgb(220,209,161);stop-opacity:1"></stop><stop offset="0.5" style="stop-color:rgb(185,164,112);stop-opacity:1"></stop><stop offset="0.6" style="stop-color:rgb(178,153,99);stop-opacity:1"></stop><stop offset="1" style="stop-color:rgb(239,223,156);stop-opacity:1"></stop></linearGradient> <linearGradient id="_Linear13" x1="0" y1="0" x2="1" y2="0" gradientUnits="userSpaceOnUse" gradientTransform="matrix(1236.79,0,0,43.984,660.94,946.598)"><stop offset="0" style="stop-color:rgb(236,208,116);stop-opacity:1"></stop><stop offset="0.3" style="stop-color:rgb(244,241,194);stop-opacity:1"></stop><stop offset="0.4" style="stop-color:rgb(220,209,161);stop-opacity:1"></stop><stop offset="0.5" style="stop-color:rgb(185,164,112);stop-opacity:1"></stop><stop offset="0.6" style="stop-color:rgb(178,153,99);stop-opacity:1"></stop><stop offset="1" style="stop-color:rgb(239,223,156);stop-opacity:1"></stop></linearGradient> <linearGradient id="_Linear14" x1="0" y1="0" x2="1" y2="0" gradientUnits="userSpaceOnUse" gradientTransform="matrix(1236.79,0,0,43.984,660.94,946.598)"><stop offset="0" style="stop-color:rgb(236,208,116);stop-opacity:1"></stop><stop offset="0.3" style="stop-color:rgb(244,241,194);stop-opacity:1"></stop><stop offset="0.4" style="stop-color:rgb(220,209,161);stop-opacity:1"></stop><stop offset="0.5" style="stop-color:rgb(185,164,112);stop-opacity:1"></stop><stop offset="0.6" style="stop-color:rgb(178,153,99);stop-opacity:1"></stop><stop offset="1" style="stop-color:rgb(239,223,156);stop-opacity:1"></stop></linearGradient> <linearGradient id="_Linear15" x1="0" y1="0" x2="1" y2="0" gradientUnits="userSpaceOnUse" gradientTransform="matrix(1236.79,0,0,43.984,660.94,946.598)"><stop offset="0" style="stop-color:rgb(236,208,116);stop-opacity:1"></stop><stop offset="0.3" style="stop-color:rgb(244,241,194);stop-opacity:1"></stop><stop offset="0.4" style="stop-color:rgb(220,209,161);stop-opacity:1"></stop><stop offset="0.5" style="stop-color:rgb(185,164,112);stop-opacity:1"></stop><stop offset="0.6" style="stop-color:rgb(178,153,99);stop-opacity:1"></stop><stop offset="1" style="stop-color:rgb(239,223,156);stop-opacity:1"></stop></linearGradient> <linearGradient id="_Linear16" x1="0" y1="0" x2="1" y2="0" gradientUnits="userSpaceOnUse" gradientTransform="matrix(1236.79,0,0,43.984,660.94,946.598)"><stop offset="0" style="stop-color:rgb(236,208,116);stop-opacity:1"></stop><stop offset="0.3" style="stop-color:rgb(244,241,194);stop-opacity:1"></stop><stop offset="0.4" style="stop-color:rgb(220,209,161);stop-opacity:1"></stop><stop offset="0.5" style="stop-color:rgb(185,164,112);stop-opacity:1"></stop><stop offset="0.6" style="stop-color:rgb(178,153,99);stop-opacity:1"></stop><stop offset="1" style="stop-color:rgb(239,223,156);stop-opacity:1"></stop></linearGradient> <linearGradient id="_Linear17" x1="0" y1="0" x2="1" y2="0" gradientUnits="userSpaceOnUse" gradientTransform="matrix(1236.79,0,0,43.984,660.94,946.598)"><stop offset="0" style="stop-color:rgb(236,208,116);stop-opacity:1"></stop><stop offset="0.3" style="stop-color:rgb(244,241,194);stop-opacity:1"></stop><stop offset="0.4" style="stop-color:rgb(220,209,161);stop-opacity:1"></stop><stop offset="0.5" style="stop-color:rgb(185,164,112);stop-opacity:1"></stop><stop offset="0.6" style="stop-color:rgb(178,153,99);stop-opacity:1"></stop><stop offset="1" style="stop-color:rgb(239,223,156);stop-opacity:1"></stop></linearGradient> <linearGradient id="_Linear18" x1="0" y1="0" x2="1" y2="0" gradientUnits="userSpaceOnUse" gradientTransform="matrix(1236.79,0,0,43.984,660.94,946.598)"><stop offset="0" style="stop-color:rgb(236,208,116);stop-opacity:1"></stop><stop offset="0.3" style="stop-color:rgb(244,241,194);stop-opacity:1"></stop><stop offset="0.4" style="stop-color:rgb(220,209,161);stop-opacity:1"></stop><stop offset="0.5" style="stop-color:rgb(185,164,112);stop-opacity:1"></stop><stop offset="0.6" style="stop-color:rgb(178,153,99);stop-opacity:1"></stop><stop offset="1" style="stop-color:rgb(239,223,156);stop-opacity:1"></stop></linearGradient> <linearGradient id="_Linear19" x1="0" y1="0" x2="1" y2="0" gradientUnits="userSpaceOnUse" gradientTransform="matrix(1236.79,0,0,43.984,660.94,946.598)"><stop offset="0" style="stop-color:rgb(236,208,116);stop-opacity:1"></stop><stop offset="0.3" style="stop-color:rgb(244,241,194);stop-opacity:1"></stop><stop offset="0.4" style="stop-color:rgb(220,209,161);stop-opacity:1"></stop><stop offset="0.5" style="stop-color:rgb(185,164,112);stop-opacity:1"></stop><stop offset="0.6" style="stop-color:rgb(178,153,99);stop-opacity:1"></stop><stop offset="1" style="stop-color:rgb(239,223,156);stop-opacity:1"></stop></linearGradient> <linearGradient id="_Linear20" x1="0" y1="0" x2="1" y2="0" gradientUnits="userSpaceOnUse" gradientTransform="matrix(1236.79,0,0,43.984,660.94,946.598)"><stop offset="0" style="stop-color:rgb(236,208,116);stop-opacity:1"></stop><stop offset="0.3" style="stop-color:rgb(244,241,194);stop-opacity:1"></stop><stop offset="0.4" style="stop-color:rgb(220,209,161);stop-opacity:1"></stop><stop offset="0.5" style="stop-color:rgb(185,164,112);stop-opacity:1"></stop><stop offset="0.6" style="stop-color:rgb(178,153,99);stop-opacity:1"></stop><stop offset="1" style="stop-color:rgb(239,223,156);stop-opacity:1"></stop></linearGradient> <linearGradient id="_Linear21" x1="0" y1="0" x2="1" y2="0" gradientUnits="userSpaceOnUse" gradientTransform="matrix(1236.79,0,0,43.984,660.94,946.598)"><stop offset="0" style="stop-color:rgb(236,208,116);stop-opacity:1"></stop><stop offset="0.3" style="stop-color:rgb(244,241,194);stop-opacity:1"></stop><stop offset="0.4" style="stop-color:rgb(220,209,161);stop-opacity:1"></stop><stop offset="0.5" style="stop-color:rgb(185,164,112);stop-opacity:1"></stop><stop offset="0.6" style="stop-color:rgb(178,153,99);stop-opacity:1"></stop><stop offset="1" style="stop-color:rgb(239,223,156);stop-opacity:1"></stop></linearGradient> <linearGradient id="_Linear22" x1="0" y1="0" x2="1" y2="0" gradientUnits="userSpaceOnUse" gradientTransform="matrix(1236.79,0,0,43.984,660.94,946.598)"><stop offset="0" style="stop-color:rgb(236,208,116);stop-opacity:1"></stop><stop offset="0.3" style="stop-color:rgb(244,241,194);stop-opacity:1"></stop><stop offset="0.4" style="stop-color:rgb(220,209,161);stop-opacity:1"></stop><stop offset="0.5" style="stop-color:rgb(185,164,112);stop-opacity:1"></stop><stop offset="0.6" style="stop-color:rgb(178,153,99);stop-opacity:1"></stop><stop offset="1" style="stop-color:rgb(239,223,156);stop-opacity:1"></stop></linearGradient> <linearGradient id="_Linear23" x1="0" y1="0" x2="1" y2="0" gradientUnits="userSpaceOnUse" gradientTransform="matrix(1234.11,0,0,1234.11,664.954,740.728)"><stop offset="0" style="stop-color:rgb(236,208,116);stop-opacity:1"></stop><stop offset="0.3" style="stop-color:rgb(244,241,194);stop-opacity:1"></stop><stop offset="0.4" style="stop-color:rgb(220,209,161);stop-opacity:1"></stop><stop offset="0.5" style="stop-color:rgb(185,164,112);stop-opacity:1"></stop><stop offset="0.6" style="stop-color:rgb(178,153,99);stop-opacity:1"></stop><stop offset="1" style="stop-color:rgb(239,223,156);stop-opacity:1"></stop></linearGradient> </defs> </svg> 