<?xml version="1.0" standalone="no"?>
<!DOCTYPE svg PUBLIC "-//W3C//DTD SVG 20010904//EN"
 "http://www.w3.org/TR/2001/REC-SVG-20010904/DTD/svg10.dtd">
<svg version="1.0" xmlns="http://www.w3.org/2000/svg"
 width="298.000000pt" height="120.000000pt" viewBox="0 0 298.000000 120.000000"
 preserveAspectRatio="xMidYMid meet">

<g transform="translate(0.000000,120.000000) scale(0.100000,-0.100000)"
fill="#000000" stroke="none">
<path d="M976 1188 c-139 -30 -159 -199 -29 -254 90 -38 204 10 219 94 20 104
-76 184 -190 160z m119 -50 c53 -47 49 -134 -8 -168 -95 -59 -219 18 -187 116
17 51 53 74 116 74 41 0 59 -5 79 -22z"/>
<path d="M570 1055 l0 -135 84 0 c45 0 97 5 115 11 55 19 68 74 26 113 -22 21
-23 25 -10 36 16 13 20 57 7 76 -16 24 -55 34 -136 34 l-86 0 0 -135z m190 90
c32 -39 -14 -75 -97 -75 l-53 0 0 45 0 45 69 0 c48 0 72 -4 81 -15z m8 -117
c18 -18 14 -56 -7 -68 -11 -5 -49 -10 -85 -10 l-66 0 0 45 0 45 73 0 c43 0 78
-5 85 -12z"/>
<path d="M1230 1105 c0 -51 6 -99 14 -120 37 -87 185 -87 222 0 8 21 14 69 14
120 0 78 -2 85 -20 85 -19 0 -20 -7 -20 -100 0 -89 -2 -101 -22 -120 -32 -29
-92 -27 -123 5 -23 22 -25 32 -25 120 0 88 -1 95 -20 95 -18 0 -20 -7 -20 -85z"/>
<path d="M1512 1178 c3 -8 26 -14 56 -16 l52 -3 0 -120 c0 -99 3 -119 15 -119
12 0 15 20 15 119 l0 120 52 3 c30 2 53 8 56 16 3 9 -26 12 -123 12 -97 0
-126 -3 -123 -12z"/>
<path d="M1800 1054 c0 -124 2 -135 18 -132 15 3 17 19 20 136 2 127 2 132
-18 132 -19 0 -20 -6 -20 -136z"/>
<path d="M1990 1183 c-31 -11 -80 -68 -86 -99 -13 -72 39 -146 113 -160 20 -4
52 -17 71 -30 39 -27 89 -31 118 -10 14 11 16 18 8 26 -8 8 -14 9 -18 1 -12
-19 -96 -11 -96 9 0 4 11 11 24 14 13 3 38 22 55 41 52 60 37 153 -32 195 -31
19 -120 26 -157 13z m149 -49 c82 -69 26 -184 -90 -184 -33 0 -47 6 -75 34
-46 46 -48 104 -5 147 25 25 37 29 84 29 45 0 61 -5 86 -26z"/>
<path d="M2280 1095 c0 -65 5 -105 15 -125 29 -57 143 -66 194 -16 24 25 26
34 29 131 3 91 2 105 -12 105 -13 0 -16 -13 -16 -79 0 -126 -20 -161 -95 -161
-25 0 -43 8 -60 25 -23 22 -25 32 -25 120 0 78 -3 95 -15 95 -12 0 -15 -17
-15 -95z"/>
<path d="M2610 1055 l0 -135 105 0 c87 0 105 3 105 15 0 12 -16 15 -85 15
l-85 0 0 45 0 44 72 3 c46 2 73 7 76 16 3 9 -16 12 -72 12 l-76 0 0 45 0 45
80 0 c64 0 80 3 80 15 0 12 -18 15 -100 15 l-100 0 0 -135z"/>
<path d="M86 1141 c-44 -45 -49 -33 54 -154 l65 -77 43 47 c24 27 61 69 83 95
l40 47 -37 40 -36 41 -87 0 -87 0 -38 -39z m74 -11 c-7 -12 -21 -20 -37 -20
-25 0 -26 0 -8 20 10 11 27 20 37 20 16 0 17 -3 8 -20z m145 0 c18 -19 17 -20
-7 -20 -14 0 -33 9 -43 20 -18 19 -17 20 7 20 14 0 33 -9 43 -20z m-89 -18
c-22 -5 -30 3 -21 18 5 8 11 7 22 -2 15 -12 14 -13 -1 -16z m-58 -69 c6 -20
10 -38 9 -39 -1 -2 -17 15 -35 37 -33 39 -33 39 -9 39 19 0 26 -8 35 -37z m70
0 c-15 -57 -20 -60 -34 -22 -19 52 -17 59 15 59 29 0 29 0 19 -37z m73 19
c-10 -18 -51 -59 -51 -50 0 27 25 68 41 68 16 0 18 -4 10 -18z"/>
<path d="M196 618 c-39 -133 -42 -152 -24 -146 9 3 87 232 88 261 0 4 -6 7
-14 7 -8 0 -26 -44 -50 -122z"/>
<path d="M620 722 c-29 -14 -35 -23 -38 -54 -3 -33 1 -40 28 -57 17 -10 49
-21 70 -25 20 -3 48 -14 60 -24 19 -16 21 -22 11 -40 -15 -29 -56 -38 -105
-23 -58 17 -68 18 -73 5 -6 -17 56 -38 114 -38 66 0 106 31 101 79 -3 33 -33
53 -117 77 -59 17 -74 42 -41 69 23 20 48 21 124 7 37 -6 27 21 -11 31 -54 15
-83 14 -123 -7z"/>
<path d="M926 730 c-82 -25 -121 -124 -76 -197 26 -43 74 -67 135 -67 61 0
109 24 135 67 69 113 -55 238 -194 197z m145 -56 c23 -22 29 -36 29 -70 0
-101 -117 -147 -200 -78 -37 32 -46 73 -25 118 33 70 137 86 196 30z"/>
<path d="M1210 605 c0 -113 2 -135 15 -135 12 0 15 13 15 55 l0 55 75 0 c60 0
75 3 75 15 0 12 -15 15 -75 15 l-75 0 0 50 0 50 85 0 c69 0 85 3 85 15 0 12
-18 15 -100 15 l-100 0 0 -135z"/>
<path d="M1430 725 c0 -11 12 -15 50 -15 l50 0 0 -120 c0 -100 3 -120 15 -120
13 0 15 20 15 120 l0 120 56 0 c40 0 55 3 52 13 -3 8 -39 13 -121 15 -100 2
-117 0 -117 -13z"/>
<path d="M1682 729 c3 -8 25 -69 49 -136 58 -162 69 -164 123 -18 21 58 42
103 45 99 3 -3 22 -49 42 -102 28 -74 42 -98 57 -100 16 -2 24 7 38 45 10 26
30 82 46 123 30 80 34 100 18 100 -13 0 -32 -39 -66 -137 -16 -46 -31 -83 -34
-83 -3 0 -23 47 -44 105 -22 58 -43 108 -48 112 -17 10 -34 -19 -68 -112 -18
-49 -36 -94 -40 -98 -3 -4 -25 41 -47 100 -28 77 -45 109 -58 112 -12 2 -16
-2 -13 -10z"/>
<path d="M2185 610 c-36 -71 -65 -132 -65 -135 0 -3 7 -5 15 -5 9 0 23 16 32
35 l17 36 81 -3 c79 -3 80 -3 95 -35 8 -18 23 -33 33 -33 9 0 17 2 17 5 0 3
-29 64 -65 135 -40 79 -71 130 -80 130 -9 0 -40 -51 -80 -130z m145 -42 c0 -5
-29 -8 -65 -8 -36 0 -65 2 -65 5 0 2 15 34 32 70 l32 65 33 -62 c18 -35 32
-66 33 -70z"/>
<path d="M2460 605 c0 -128 1 -135 20 -135 17 0 20 7 20 40 l0 40 48 0 c45 0
50 -3 78 -40 16 -22 37 -40 47 -40 20 0 18 6 -20 56 l-23 30 30 23 c24 17 30
29 30 59 0 74 -46 102 -167 102 l-63 0 0 -135z m181 76 c24 -30 24 -56 -1 -81
-16 -16 -33 -20 -80 -20 l-60 0 0 66 0 66 61 -4 c49 -4 66 -9 80 -27z"/>
<path d="M2767 734 c-4 -4 -7 -65 -7 -136 l0 -128 105 0 c63 0 105 4 105 10 0
6 -35 10 -85 10 l-85 0 0 50 0 50 75 0 c60 0 75 3 75 15 0 12 -15 15 -75 15
l-75 0 0 45 0 45 86 0 c64 0 85 3 82 13 -5 13 -188 23 -201 11z"/>
<path d="M55 666 c-51 -61 -52 -57 8 -129 27 -33 43 -45 50 -38 7 7 -2 25 -26
55 -21 24 -37 48 -37 52 0 4 16 27 36 51 24 30 33 48 27 54 -7 7 -26 -8 -58
-45z"/>
<path d="M297 714 c-4 -4 11 -29 33 -57 l40 -49 -20 -27 c-59 -76 -60 -79 -47
-84 12 -4 104 96 101 110 -2 11 -87 113 -94 113 -4 0 -10 -3 -13 -6z"/>
<path d="M116 228 c-75 -69 -86 -83 -73 -93 11 -8 17 -31 19 -71 l3 -59 58 -3
57 -3 0 61 c0 57 1 60 25 60 22 0 24 -4 27 -58 l3 -57 58 -3 57 -3 0 70 c0 56
3 69 14 65 8 -3 17 -1 20 4 4 7 -164 172 -176 172 -2 0 -43 -37 -92 -82z m153
-11 l51 -48 0 -69 0 -70 -30 0 -30 0 0 60 0 60 -55 0 -55 0 0 -60 0 -60 -30 0
-30 0 0 68 -1 67 58 52 c32 29 61 51 65 50 3 -1 29 -24 57 -50z"/>
<path d="M570 145 c0 -128 1 -135 20 -135 18 0 20 7 20 60 l0 60 85 0 85 0 0
-60 c0 -53 2 -60 20 -60 19 0 20 7 20 135 0 128 -1 135 -20 135 -18 0 -20 -7
-20 -60 l0 -60 -85 0 -85 0 0 60 c0 53 -2 60 -20 60 -19 0 -20 -7 -20 -135z"/>
<path d="M961 262 c-51 -25 -74 -63 -74 -117 0 -79 63 -135 153 -135 90 0 153
56 153 135 0 79 -63 135 -153 135 -25 0 -60 -8 -79 -18z m165 -46 c26 -26 34
-42 34 -71 0 -29 -8 -45 -34 -71 -30 -30 -40 -34 -86 -34 -46 0 -56 4 -86 34
-26 26 -34 42 -34 71 0 29 8 45 34 71 30 30 40 34 86 34 46 0 56 -4 86 -34z"/>
<path d="M1260 185 c0 -105 11 -140 51 -161 36 -18 102 -18 138 0 40 21 51 56
51 161 0 78 -3 95 -15 95 -12 0 -15 -17 -15 -94 0 -79 -3 -97 -21 -120 -16
-21 -29 -26 -64 -26 -27 0 -51 7 -66 19 -22 17 -24 28 -27 120 -3 79 -7 101
-18 101 -11 0 -14 -20 -14 -95z"/>
<path d="M1613 270 c-25 -10 -43 -39 -43 -69 0 -26 43 -59 89 -67 79 -14 114
-53 76 -84 -15 -12 -99 -10 -142 5 -17 5 -23 3 -23 -8 0 -20 51 -37 112 -37
42 0 54 5 79 30 23 23 29 35 24 52 -11 36 -25 45 -102 68 -64 18 -73 24 -73
44 0 39 23 50 95 43 40 -4 65 -2 65 4 0 25 -109 38 -157 19z"/>
<path d="M1850 145 l0 -135 105 0 c87 0 105 3 105 15 0 12 -17 15 -90 15 l-90
0 0 45 0 44 77 3 c50 2 78 7 81 16 3 9 -17 12 -77 12 l-81 0 0 45 0 45 85 0
c69 0 85 3 85 15 0 12 -18 15 -100 15 l-100 0 0 -135z"/>
</g>
</svg>
